<svg width="64" height="64" viewBox="0 0 64 64" fill="none" xmlns="http://www.w3.org/2000/svg">
  <path d="M31.9 8C24.5 8 18.5 13.5 18.5 20.3V28H32V30H18.5C11.7 30 6 36 6 43.5C6 51 11.7 57 18.5 57H24V48.7C24 42 29.4 36 36.1 36H49.5C55.8 36 61 30.5 61 24.2V20.3C61 13.5 55.3 8 48.5 8H31.9ZM26.5 14C28.4 14 30 15.6 30 17.5C30 19.4 28.4 21 26.5 21C24.6 21 23 19.4 23 17.5C23 15.6 24.6 14 26.5 14Z" fill="#94A3B8"/>
  <path d="M40 34V43.3C40 50 34.6 56 27.9 56H14.5C8.2 56 3 50.5 3 44.2V40.3C3 33.5 8.7 28 15.5 28H29V26H15.5C8.7 26 3 20 3 12.5C3 5 8.7-1 15.5-1H21V7.3C21 14 26.4 20 33.1 20H46.5C52.8 20 58 25.5 58 31.8V35.7C58 42.5 52.3 48 45.5 48H40ZM37.5 50C35.6 50 34 48.4 34 46.5C34 44.6 35.6 43 37.5 43C39.4 43 41 44.6 41 46.5C41 48.4 39.4 50 37.5 50Z" fill="#94A3B8" opacity="0.6"/>
</svg>
